<svg width="155" height="30" viewBox="0 0 155 30" fill="none" xmlns="http://www.w3.org/2000/svg">
<path d="M2.99522 24.6932C2.58189 24.6932 2.23314 24.5511 1.94897 24.2669C1.69064 23.9569 1.5873 23.5952 1.63897 23.1819L3.30522 10.1619C3.35689 9.64525 3.55064 9.25775 3.88647 8.99941C4.24814 8.74108 4.63564 8.61191 5.04897 8.61191C5.4623 8.61191 5.83689 8.71525 6.17272 8.92191C6.53439 9.10275 6.7798 9.38691 6.90897 9.77441L9.97022 18.4544C10.0994 18.7644 10.2286 18.9194 10.3577 18.9194C10.5127 18.9194 10.6419 18.7644 10.7452 18.4544L13.8065 9.77441C13.9356 9.38691 14.1681 9.10275 14.504 8.92191C14.8656 8.71525 15.2402 8.61191 15.6277 8.61191C16.0411 8.61191 16.4286 8.74108 16.7902 8.99941C17.1519 9.25775 17.3586 9.64525 17.4102 10.1619L19.0765 23.1819C19.1281 23.5952 19.0248 23.9569 18.7665 24.2669C18.5081 24.5511 18.1594 24.6932 17.7202 24.6932C17.3844 24.6932 17.0744 24.5769 16.7902 24.3444C16.5319 24.1119 16.3769 23.8148 16.3252 23.4532L15.4727 13.8819C15.4469 13.5719 15.3436 13.4169 15.1627 13.4169C14.9819 13.4169 14.8527 13.5461 14.7752 13.8044L11.9852 21.5157C11.8302 21.929 11.6106 22.2261 11.3265 22.4069C11.0423 22.5877 10.7194 22.6782 10.3577 22.6782C9.66022 22.6782 9.13064 22.2907 8.76897 21.5157L5.94022 13.8044C5.83689 13.5461 5.70772 13.4169 5.55272 13.4169C5.44939 13.4169 5.37189 13.5719 5.32022 13.8819L4.39022 23.4532C4.36439 23.8148 4.20939 24.1119 3.92522 24.3444C3.66689 24.5769 3.35689 24.6932 2.99522 24.6932ZM26.8174 24.6932C25.6807 24.6932 24.6474 24.4348 23.7174 23.9182C22.8132 23.4015 22.1028 22.6911 21.5861 21.7869C21.0695 20.8569 20.8111 19.8236 20.8111 18.6869C20.8111 17.5761 21.0695 16.5815 21.5861 15.7032C22.1028 14.8248 22.8132 14.1402 23.7174 13.6494C24.6474 13.1327 25.6807 12.8744 26.8174 12.8744C27.9541 12.8744 28.9745 13.1327 29.8786 13.6494C30.7828 14.1402 31.4932 14.8248 32.0099 15.7032C32.5524 16.5815 32.8236 17.5761 32.8236 18.6869C32.8236 19.8236 32.5524 20.8569 32.0099 21.7869C31.4932 22.6911 30.7828 23.4015 29.8786 23.9182C28.9745 24.4348 27.9541 24.6932 26.8174 24.6932ZM26.8174 22.2907C27.8249 22.2907 28.6386 21.9677 29.2586 21.3219C29.8786 20.6502 30.1886 19.7719 30.1886 18.6869C30.1886 17.6536 29.8786 16.8269 29.2586 16.2069C28.6386 15.5869 27.8249 15.2769 26.8174 15.2769C25.7841 15.2769 24.9574 15.5869 24.3374 16.2069C23.7432 16.8269 23.4461 17.6536 23.4461 18.6869C23.4461 19.7719 23.7432 20.6502 24.3374 21.3219C24.9574 21.9677 25.7841 22.2907 26.8174 22.2907ZM47.7348 24.6932C46.5982 24.6932 45.5002 24.4994 44.4411 24.1119C43.4077 23.7244 42.6069 23.169 42.0386 22.4457C41.8319 22.1615 41.7286 21.8773 41.7286 21.5932C41.7286 21.2573 41.8577 20.9732 42.1161 20.7407C42.4002 20.4823 42.7102 20.3532 43.0461 20.3532C43.2269 20.3532 43.4077 20.3919 43.5886 20.4694C43.7694 20.5211 43.9115 20.6244 44.0148 20.7794C44.4282 21.2702 44.9836 21.6577 45.6811 21.9419C46.4044 22.2261 47.1536 22.3682 47.9286 22.3682C48.8327 22.3682 49.569 22.1486 50.1373 21.7094C50.7315 21.2702 51.0286 20.689 51.0286 19.9657C51.0286 19.139 50.6798 18.5577 49.9823 18.2219C49.3107 17.8602 48.5227 17.6019 47.6186 17.4469C46.7919 17.2919 45.9523 17.0723 45.0998 16.7882C44.2473 16.4782 43.5369 16.039 42.9686 15.4707C42.4002 14.8765 42.1161 14.0757 42.1161 13.0682C42.1161 11.699 42.6327 10.614 43.6661 9.81316C44.7252 9.01233 46.1332 8.61191 47.8898 8.61191C48.8198 8.61191 49.6723 8.754 50.4473 9.03816C51.2223 9.2965 51.8682 9.65816 52.3848 10.1232C52.6948 10.3815 52.8498 10.7044 52.8498 11.0919C52.8498 11.4019 52.7336 11.6732 52.5011 11.9057C52.2686 12.1382 51.9973 12.2544 51.6873 12.2544C51.3773 12.2544 51.0802 12.1511 50.7961 11.9444C49.9694 11.2727 48.949 10.9369 47.7348 10.9369C45.6682 10.9369 44.6348 11.6344 44.6348 13.0294C44.6348 13.7011 44.9448 14.1661 45.5648 14.4244C46.2107 14.6569 47.0761 14.9023 48.1611 15.1607C48.6777 15.264 49.2332 15.419 49.8273 15.6257C50.4473 15.8065 51.0415 16.0777 51.6098 16.4394C52.1782 16.7752 52.6432 17.2402 53.0048 17.8344C53.3665 18.4027 53.5473 19.1261 53.5473 20.0044C53.5473 21.3994 53.0048 22.5361 51.9198 23.4144C50.8607 24.2669 49.4657 24.6932 47.7348 24.6932ZM61.9022 24.6932C61.1788 24.6932 60.533 24.564 59.9647 24.3057C59.3963 24.0732 58.9055 23.7502 58.4922 23.3369V28.7232C58.4922 29.1107 58.3501 29.4077 58.0659 29.6144C57.8076 29.8211 57.5105 29.9244 57.1747 29.9244C56.8388 29.9244 56.5288 29.8211 56.2447 29.6144C55.9863 29.4077 55.8572 29.1107 55.8572 28.7232V14.3857C55.8572 13.9465 55.9863 13.6236 56.2447 13.4169C56.5288 13.1844 56.8388 13.0682 57.1747 13.0682C57.4847 13.0682 57.7688 13.1715 58.0272 13.3782C58.2855 13.559 58.4405 13.8302 58.4922 14.1919C58.9055 13.8044 59.3963 13.4944 59.9647 13.2619C60.533 13.0036 61.1788 12.8744 61.9022 12.8744C63.0388 12.8744 64.0334 13.1327 64.8859 13.6494C65.7643 14.1402 66.4488 14.8248 66.9397 15.7032C67.4305 16.5815 67.6759 17.5761 67.6759 18.6869C67.6759 19.8236 67.4305 20.8569 66.9397 21.7869C66.4488 22.6911 65.7643 23.4015 64.8859 23.9182C64.0334 24.4348 63.0388 24.6932 61.9022 24.6932ZM61.6697 22.2907C62.6772 22.2907 63.4909 21.9677 64.1109 21.3219C64.7309 20.6502 65.0409 19.7719 65.0409 18.6869C65.0409 17.6536 64.7309 16.8269 64.1109 16.2069C63.4909 15.5869 62.6772 15.2769 61.6697 15.2769C60.688 15.2769 59.913 15.5869 59.3447 16.2069C58.7763 16.8269 58.4922 17.6536 58.4922 18.6869C58.4922 19.7719 58.7763 20.6502 59.3447 21.3219C59.913 21.9677 60.688 22.2907 61.6697 22.2907ZM75.5809 24.6932C73.6434 24.6932 72.1322 24.1377 71.0472 23.0269C69.9622 21.9161 69.4197 20.4177 69.4197 18.5319C69.4197 16.8786 69.9622 15.5223 71.0472 14.4632C72.158 13.404 73.5789 12.8744 75.3097 12.8744C76.9889 12.8744 78.3322 13.3652 79.3397 14.3469C80.3472 15.3027 80.8509 16.4911 80.8509 17.9119C80.8509 18.4802 80.6959 18.9065 80.3859 19.1907C80.1018 19.4748 79.7272 19.6169 79.2622 19.6169H72.5197C72.2614 19.6169 72.1709 19.759 72.2484 20.0432C72.4551 20.7665 72.8684 21.3348 73.4884 21.7482C74.1343 22.1357 74.8576 22.3294 75.6584 22.3294C76.2526 22.3294 76.8209 22.2519 77.3634 22.0969C77.9318 21.9419 78.4226 21.7094 78.8359 21.3994C78.9651 21.2961 79.133 21.2444 79.3397 21.2444C79.6239 21.2444 79.8822 21.3736 80.1147 21.6319C80.3472 21.8644 80.4634 22.1486 80.4634 22.4844C80.4634 22.6394 80.4376 22.7944 80.3859 22.9494C80.3343 23.1044 80.218 23.2594 80.0372 23.4144C79.3655 23.9052 78.6422 24.2411 77.8672 24.4219C77.118 24.6027 76.3559 24.6932 75.5809 24.6932ZM77.8284 17.6019C77.9834 17.6019 78.0609 17.5244 78.0609 17.3694C78.0609 16.7752 77.7897 16.2586 77.2472 15.8194C76.7305 15.3802 76.0847 15.1607 75.3097 15.1607C74.638 15.1607 73.9922 15.3415 73.3722 15.7032C72.778 16.0648 72.4164 16.5427 72.2872 17.1369C72.2872 17.1369 72.2872 17.1498 72.2872 17.1757C72.2614 17.279 72.2484 17.3694 72.2484 17.4469C72.2743 17.5244 72.3905 17.5632 72.5972 17.5632L77.8284 17.6019ZM88.7453 24.6932C86.8078 24.6932 85.2966 24.1377 84.2116 23.0269C83.1266 21.9161 82.5841 20.4177 82.5841 18.5319C82.5841 16.8786 83.1266 15.5223 84.2116 14.4632C85.3224 13.404 86.7433 12.8744 88.4741 12.8744C90.1533 12.8744 91.4966 13.3652 92.5041 14.3469C93.5116 15.3027 94.0153 16.4911 94.0153 17.9119C94.0153 18.4802 93.8603 18.9065 93.5503 19.1907C93.2662 19.4748 92.8916 19.6169 92.4266 19.6169H85.6841C85.4258 19.6169 85.3353 19.759 85.4128 20.0432C85.6195 20.7665 86.0328 21.3348 86.6528 21.7482C87.2987 22.1357 88.022 22.3294 88.8228 22.3294C89.417 22.3294 89.9853 22.2519 90.5278 22.0969C91.0962 21.9419 91.587 21.7094 92.0003 21.3994C92.1295 21.2961 92.2974 21.2444 92.5041 21.2444C92.7883 21.2444 93.0466 21.3736 93.2791 21.6319C93.5116 21.8644 93.6278 22.1486 93.6278 22.4844C93.6278 22.6394 93.602 22.7944 93.5503 22.9494C93.4987 23.1044 93.3824 23.2594 93.2016 23.4144C92.5299 23.9052 91.8066 24.2411 91.0316 24.4219C90.2824 24.6027 89.5203 24.6932 88.7453 24.6932ZM90.9928 17.6019C91.1478 17.6019 91.2253 17.5244 91.2253 17.3694C91.2253 16.7752 90.9541 16.2586 90.4116 15.8194C89.8949 15.3802 89.2491 15.1607 88.4741 15.1607C87.8024 15.1607 87.1566 15.3415 86.5366 15.7032C85.9424 16.0648 85.5808 16.5427 85.4516 17.1369C85.4516 17.1369 85.4516 17.1498 85.4516 17.1757C85.4258 17.279 85.4128 17.3694 85.4128 17.4469C85.4387 17.5244 85.5549 17.5632 85.7616 17.5632L90.9928 17.6019ZM101.677 24.6932C99.9464 24.6932 98.5256 24.1377 97.4147 23.0269C96.3039 21.9161 95.7485 20.4694 95.7485 18.6869C95.7485 17.5502 96.0068 16.5427 96.5235 15.6644C97.0402 14.7861 97.7377 14.1015 98.616 13.6107C99.5202 13.1198 100.541 12.8744 101.677 12.8744C103.227 12.8744 104.545 13.2361 105.63 13.9594C105.991 14.1919 106.172 14.5148 106.172 14.9282C106.172 15.3415 106.043 15.6644 105.785 15.8969C105.526 16.1294 105.229 16.2457 104.893 16.2457C104.661 16.2457 104.454 16.194 104.273 16.0907C103.318 15.4448 102.426 15.1607 101.6 15.2382C100.592 15.3415 99.8043 15.6902 99.236 16.2844C98.6677 16.8527 98.3835 17.6665 98.3835 18.7257C98.3835 19.8365 98.6806 20.7148 99.2747 21.3607C99.8947 21.9807 100.76 22.2907 101.871 22.2907C102.853 22.2907 103.834 21.9161 104.816 21.1669C105.023 20.9861 105.294 20.8957 105.63 20.8957C106.017 20.8957 106.301 21.0507 106.482 21.3607C106.689 21.6448 106.792 21.9161 106.792 22.1744C106.792 22.5361 106.624 22.8719 106.288 23.1819C105.643 23.7502 104.932 24.1377 104.157 24.3444C103.382 24.5769 102.556 24.6932 101.677 24.6932ZM110.059 24.6932C109.724 24.6932 109.414 24.5898 109.129 24.3832C108.871 24.1765 108.742 23.8794 108.742 23.4919V8.76691C108.742 8.32775 108.871 8.00483 109.129 7.79816C109.414 7.56566 109.724 7.44941 110.059 7.44941C110.395 7.44941 110.692 7.56566 110.951 7.79816C111.235 8.00483 111.377 8.32775 111.377 8.76691V14.3082C111.79 13.869 112.333 13.5202 113.004 13.2619C113.702 13.0036 114.348 12.8744 114.942 12.8744C116.285 12.8744 117.422 13.3394 118.352 14.2694C119.308 15.1994 119.786 16.5686 119.786 18.3769V23.4919C119.786 23.8794 119.644 24.1765 119.359 24.3832C119.075 24.5898 118.778 24.6932 118.468 24.6932C118.132 24.6932 117.822 24.5898 117.538 24.3832C117.28 24.1765 117.151 23.8794 117.151 23.4919V18.6094C117.151 17.4727 116.892 16.6332 116.376 16.0907C115.885 15.5482 115.226 15.2769 114.399 15.2769C113.289 15.2769 112.501 15.6257 112.036 16.3232C111.596 16.9948 111.377 17.744 111.377 18.5707V23.4919C111.377 23.8794 111.235 24.1765 110.951 24.3832C110.692 24.5898 110.395 24.6932 110.059 24.6932Z" fill="#FAFAFA"/>
<path d="M135.504 24.2187C137.815 25.4043 140.474 25.7254 143.001 25.1243C145.528 24.5231 147.757 23.0391 149.286 20.9397C150.816 18.8404 151.546 16.2637 151.344 13.6741C151.142 11.0844 150.021 8.65211 148.185 6.81538C146.348 4.97866 143.916 3.85835 141.326 3.65632C138.736 3.45429 136.16 4.18384 134.06 5.7135C131.961 7.24315 130.477 9.47232 129.876 11.9993C129.275 14.5263 129.596 17.1849 130.781 19.4961L128.359 26.6406L135.504 24.2187Z" stroke="#FAFAFA" stroke-width="2.42187" stroke-linecap="round" stroke-linejoin="round"/>
<g clip-path="url(#clip0_1241_20733)">
<path d="M144.703 13.3203V14.5313C144.703 15.6553 144.257 16.7333 143.462 17.5282C142.667 18.323 141.589 18.7695 140.465 18.7695M140.465 18.7695C139.341 18.7695 138.263 18.323 137.468 17.5282C136.673 16.7333 136.227 15.6553 136.227 14.5313V13.3203M140.465 18.7695V20.5859M140.465 8.47656C139.983 8.47656 139.521 8.66793 139.18 9.00858C138.84 9.34922 138.648 9.81123 138.648 10.293V14.5313C138.648 15.013 138.84 15.475 139.18 15.8156C139.521 16.1563 139.983 16.3477 140.465 16.3477C140.947 16.3477 141.409 16.1563 141.749 15.8156C142.09 15.475 142.281 15.013 142.281 14.5313V10.293C142.281 9.81123 142.09 9.34922 141.749 9.00858C141.409 8.66793 140.947 8.47656 140.465 8.47656Z" stroke="#FAFAFA" stroke-width="1.21094" stroke-linecap="round" stroke-linejoin="round"/>
</g>
<defs>
<clipPath id="clip0_1241_20733">
<rect width="14.5312" height="14.5312" fill="white" transform="translate(133.203 7.26562)"/>
</clipPath>
</defs>
</svg>
